<svg xmlns="http://www.w3.org/2000/svg" width="1280" height="1260" viewBox="0 0 1280 1260" role="img" aria-labelledby="title desc">
  <title id="title">Jason app system architecture</title>
  <desc id="desc">System design diagram showing browser, Next.js frontend, NestJS backend, Jason Rust CLI, request flow, and deployment configuration.</desc>
  <defs>
    <marker id="arrow" markerWidth="12" markerHeight="12" refX="10" refY="6" orient="auto" markerUnits="strokeWidth">
      <path d="M2,2 L10,6 L2,10 Z" fill="#22c55e" />
    </marker>
    <style>
      .bg { fill: #09090b; }
      .section { fill: #18181b; stroke: #3f3f46; stroke-width: 2; rx: 18; }
      .box { fill: #27272a; stroke: #71717a; stroke-width: 2; rx: 14; }
      .frontend { fill: #0f2f2a; stroke: #34d399; }
      .backend { fill: #172554; stroke: #60a5fa; }
      .cli { fill: #3b2f12; stroke: #fbbf24; }
      .deploy { fill: #2e1065; stroke: #a78bfa; }
      .title { fill: #fafafa; font: 700 34px Arial, sans-serif; }
      .sectionTitle { fill: #fafafa; font: 700 24px Arial, sans-serif; }
      .label { fill: #fafafa; font: 700 20px Arial, sans-serif; }
      .small { fill: #d4d4d8; font: 15px Arial, sans-serif; }
      .mono { fill: #d4d4d8; font: 14px Menlo, Consolas, monospace; }
      .muted { fill: #a1a1aa; font: 14px Arial, sans-serif; }
      .arrow { stroke: #22c55e; stroke-width: 3; fill: none; marker-end: url(#arrow); }
      .softArrow { stroke: #38bdf8; stroke-width: 3; fill: none; marker-end: url(#arrow); }
    </style>
  </defs>

  <rect class="bg" width="1280" height="1260" />
  <text class="title" x="64" y="70">Jason System Design</text>
  <text class="muted" x="64" y="100">Visual map of the product runtime, JSON request flow, and production deployment contract.</text>

  <rect class="section" x="48" y="135" width="1184" height="330" />
  <text class="sectionTitle" x="80" y="178">1. Runtime Architecture</text>

  <rect class="box" x="86" y="230" width="210" height="120" />
  <text class="label" x="126" y="272">Browser</text>
  <text class="small" x="118" y="304">User pastes JSON</text>
  <text class="small" x="118" y="328">Runs a tool</text>

  <rect class="box frontend" x="380" y="210" width="250" height="160" />
  <text class="label" x="435" y="250">Next.js Frontend</text>
  <text class="small" x="420" y="285">Landing page</text>
  <text class="small" x="420" y="310">Playground shell</text>
  <text class="small" x="420" y="335">CodeMirror editors</text>

  <rect class="box backend" x="718" y="210" width="250" height="160" />
  <text class="label" x="772" y="250">NestJS Backend</text>
  <text class="small" x="758" y="285">Validation</text>
  <text class="small" x="758" y="310">Error mapping</text>
  <text class="small" x="758" y="335">Response summaries</text>

  <rect class="box cli" x="1030" y="230" width="160" height="120" />
  <text class="label" x="1067" y="272">Rust CLI</text>
  <text class="small" x="1053" y="304">JSON engine</text>
  <text class="small" x="1053" y="328">Reusable core</text>

  <path class="arrow" d="M296 290 H370" />
  <text class="mono" x="310" y="274">open /playground</text>
  <path class="arrow" d="M630 290 H708" />
  <text class="mono" x="642" y="274">fetch API</text>
  <path class="arrow" d="M968 290 H1020" />
  <text class="mono" x="972" y="274">execFile</text>

  <rect class="section" x="48" y="505" width="1184" height="330" />
  <text class="sectionTitle" x="80" y="548">2. JSON Operation Request Flow</text>

  <rect class="box frontend" x="86" y="600" width="210" height="120" />
  <text class="label" x="132" y="642">Tool Hook</text>
  <text class="small" x="115" y="674">input, output, state</text>
  <text class="small" x="115" y="698">sample + copy actions</text>

  <rect class="box" x="370" y="585" width="230" height="150" />
  <text class="label" x="420" y="625">API Request</text>
  <text class="mono" x="405" y="658">POST /format</text>
  <text class="mono" x="405" y="682">POST /diff</text>
  <text class="mono" x="405" y="706">POST /patch</text>

  <rect class="box backend" x="675" y="585" width="230" height="150" />
  <text class="label" x="723" y="625">Controller</text>
  <text class="small" x="710" y="658">validate body</text>
  <text class="small" x="710" y="682">call service</text>
  <text class="small" x="710" y="706">map errors</text>

  <rect class="box cli" x="980" y="585" width="210" height="150" />
  <text class="label" x="1029" y="625">CLI Command</text>
  <text class="mono" x="1016" y="658">format --stdin</text>
  <text class="mono" x="1016" y="682">diff --stdin</text>
  <text class="mono" x="1016" y="706">pointer --stdin</text>

  <path class="arrow" d="M296 660 H360" />
  <path class="arrow" d="M600 660 H665" />
  <path class="arrow" d="M905 660 H970" />
  <path class="softArrow" d="M980 730 C830 800 520 800 296 720" />
  <text class="mono" x="468" y="792">stable JSON response returns to UI</text>

  <rect class="section" x="48" y="875" width="1184" height="310" />
  <text class="sectionTitle" x="80" y="918">3. Deployment Shape</text>

  <rect class="box deploy" x="92" y="980" width="250" height="120" />
  <text class="label" x="142" y="1022">Frontend Host</text>
  <text class="mono" x="122" y="1056">NEXT_PUBLIC_API_BASE_URL</text>
  <text class="small" x="122" y="1082">serves Next.js app</text>

  <rect class="box backend" x="505" y="980" width="250" height="120" />
  <text class="label" x="560" y="1022">Backend Host</text>
  <text class="mono" x="535" y="1056">FRONTEND_ORIGIN</text>
  <text class="mono" x="535" y="1080">GET /health</text>

  <rect class="box cli" x="900" y="980" width="250" height="120" />
  <text class="label" x="956" y="1022">Runtime Binary</text>
  <text class="mono" x="930" y="1056">JASON_CLI_PATH</text>
  <text class="small" x="930" y="1082">must be executable</text>

  <path class="arrow" d="M342 1040 H495" />
  <text class="mono" x="365" y="1024">browser API calls</text>
  <path class="arrow" d="M755 1040 H890" />
  <text class="mono" x="780" y="1024">execFile</text>

  <text class="muted" x="80" y="1160">Critical production dependency: the Node backend can build successfully while JSON tools still fail if the Rust CLI is missing.</text>
</svg>
